<svg width="71" height="17" viewBox="0 0 71 17" fill="none" xmlns="http://www.w3.org/2000/svg">
<g clip-path="url(#clip0_1_2)">
<path d="M8 11.6C8 10.6133 8.36 9.74667 9.08 9C9.8 8.25333 10.7733 7.66667 12 7.24C13.2533 6.81333 14.6267 6.6 16.12 6.6C17.64 6.6 19.04 6.81333 20.32 7.24C21.6 7.64 22.6267 8.21333 23.4 8.96C24.1733 9.70667 24.56 10.5867 24.56 11.6C24.56 12.64 24.1867 13.5467 23.44 14.32C22.6933 15.0667 21.6933 15.6533 20.44 16.08C19.2133 16.48 17.8533 16.68 16.36 16.68C14.8667 16.68 13.48 16.48 12.2 16.08C10.9467 15.68 9.93333 15.1067 9.16 14.36C8.38667 13.5867 8 12.6667 8 11.6ZM17.2 15.88C18.1067 15.88 18.72 15.5467 19.04 14.88C19.3867 14.2133 19.56 13.4267 19.56 12.52C19.56 11.5867 19.36 10.7333 18.96 9.96C18.5867 9.18667 18.08 8.57333 17.44 8.12C16.8 7.64 16.08 7.4 15.28 7.4C14.3733 7.4 13.76 7.73333 13.44 8.4C13.1467 9.06667 13 9.85333 13 10.76C13 11.6667 13.1867 12.5067 13.56 13.28C13.9333 14.0533 14.4267 14.68 15.04 15.16C15.68 15.64 16.4 15.88 17.2 15.88Z" fill="black"/>
<path d="M3.26 3.9C2.83333 3.9 2.51333 3.78 2.3 3.54C2.08667 3.3 1.98 2.99333 1.98 2.62C1.98 2.19333 2.10667 1.84 2.36 1.56C2.62667 1.28 2.98667 1.14 3.44 1.14C3.89333 1.14 4.22667 1.26 4.44 1.5C4.65333 1.74 4.76 2.04667 4.76 2.42C4.76 2.87333 4.62667 3.23333 4.36 3.5C4.10667 3.76667 3.74667 3.9 3.28 3.9H3.26ZM2.46 7.44L0.94 7.08V6.02L4.04 5.64H4.08L4.54 6V15.86L6.14 16.02V17H0.84V16.02L2.46 15.84V7.44Z" fill="black"/>
<path d="M28.1 7.44L26.66 7.08V6L29.52 5.64H29.58L30 6V6.84L29.98 7.32C30.46 6.89333 31.0933 6.50667 31.88 6.16C32.6667 5.81333 33.42 5.64 34.14 5.64C34.98 5.64 35.6267 5.8 36.08 6.12C36.5467 6.44 36.8733 6.93333 37.06 7.6C37.2467 8.25333 37.34 9.14 37.34 10.26V15.86L38.74 16V17H34V16.02L35.24 15.86V10.24C35.24 9.45333 35.1867 8.84 35.08 8.4C34.9733 7.94667 34.7733 7.61333 34.48 7.4C34.1867 7.17333 33.76 7.06 33.2 7.06C32.72 7.06 32.2067 7.18 31.66 7.42C31.1133 7.66 30.6267 7.94 30.2 8.26V15.84L31.56 16.02V17H26.84V16.02L28.1 15.84V7.44ZM42.5413 3.9C42.1146 3.9 41.7946 3.78 41.5813 3.54C41.3679 3.3 41.2613 2.99333 41.2613 2.62C41.2613 2.19333 41.3879 1.84 41.6413 1.56C41.9079 1.28 42.2679 1.14 42.7213 1.14C43.1746 1.14 43.5079 1.26 43.7213 1.5C43.9346 1.74 44.0413 2.04667 44.0413 2.42C44.0413 2.87333 43.9079 3.23333 43.6413 3.5C43.3879 3.76667 43.0279 3.9 42.5613 3.9H42.5413ZM41.7413 7.44L40.2213 7.08V6.02L43.3213 5.64H43.3613L43.8213 6V15.86L45.4213 16.02V17H40.1213V16.02L41.7413 15.84V7.44ZM46.8414 14C46.8414 12.7467 47.4681 11.8267 48.7214 11.24C49.9747 10.64 51.5614 10.32 53.4814 10.28V9.72C53.4814 9.09333 53.4147 8.6 53.2814 8.24C53.1481 7.88 52.9147 7.62 52.5814 7.46C52.2614 7.28667 51.8014 7.2 51.2014 7.2C50.5214 7.2 49.9081 7.3 49.3614 7.5C48.8281 7.68667 48.2947 7.92 47.7614 8.2L47.2614 7.16C47.4347 7.01333 47.7547 6.82 48.2214 6.58C48.6881 6.34 49.2281 6.12667 49.8414 5.94C50.4547 5.75333 51.0681 5.66 51.6814 5.66C52.6281 5.66 53.3747 5.79333 53.9214 6.06C54.4814 6.31333 54.8814 6.72667 55.1214 7.3C55.3614 7.87333 55.4814 8.64 55.4814 9.6V16.02H56.6614V16.9C56.3947 16.9667 56.0547 17.0333 55.6414 17.1C55.2414 17.1667 54.8881 17.2 54.5814 17.2C54.2081 17.2 53.9547 17.14 53.8214 17.02C53.6881 16.9133 53.6214 16.6667 53.6214 16.28V15.62C53.2214 16.02 52.7281 16.3867 52.1414 16.72C51.5681 17.0533 50.9147 17.22 50.1814 17.22C49.2214 17.22 48.4214 16.9467 47.7814 16.4C47.1547 15.84 46.8414 15.04 46.8414 14ZM51.0414 15.86C51.3881 15.86 51.7881 15.7533 52.2414 15.54C52.6947 15.3267 53.1081 15.0733 53.4814 14.78V11.34C52.0281 11.34 50.9281 11.5667 50.1814 12.02C49.4481 12.46 49.0814 13.04 49.0814 13.76C49.0814 14.48 49.2547 15.0133 49.6014 15.36C49.9614 15.6933 50.4414 15.86 51.0414 15.86ZM59.2523 7.44L57.8123 7.08V6L60.6723 5.64H60.7323L61.1523 6V6.84L61.1323 7.32C61.6123 6.89333 62.2457 6.50667 63.0323 6.16C63.819 5.81333 64.5723 5.64 65.2923 5.64C66.1323 5.64 66.779 5.8 67.2323 6.12C67.699 6.44 68.0257 6.93333 68.2123 7.6C68.399 8.25333 68.4923 9.14 68.4923 10.26V15.86L69.8923 16V17H65.1523V16.02L66.3923 15.86V10.24C66.3923 9.45333 66.339 8.84 66.2323 8.4C66.1257 7.94667 65.9257 7.61333 65.6323 7.4C65.339 7.17333 64.9123 7.06 64.3523 7.06C63.8723 7.06 63.359 7.18 62.8123 7.42C62.2657 7.66 61.779 7.94 61.3523 8.26V15.84L62.7123 16.02V17H57.9923V16.02L59.2523 15.84V7.44Z" fill="black"/>
</g>
<defs>
<clipPath id="clip0_1_2">
<rect width="71" height="17" fill="white"/>
</clipPath>
</defs>
</svg>
